<?xml version="1.0" encoding="iso-8859-1"?>
<!-- Generator: Adobe Illustrator 18.0.0, SVG Export Plug-In . SVG Version: 6.00 Build 0)  -->
<!DOCTYPE svg PUBLIC "-//W3C//DTD SVG 1.1//EN" "http://www.w3.org/Graphics/SVG/1.1/DTD/svg11.dtd">
<svg xmlns="http://www.w3.org/2000/svg" xmlns:xlink="http://www.w3.org/1999/xlink" version="1.1" id="Capa_1" x="0px" y="0px" viewBox="0 0 201.512 201.512" style="enable-background:new 0 0 201.512 201.512;" xml:space="preserve" width="512px" height="512px">
<g>
	<path d="M164.062,46.521c2.521-7.304,0.896-15.735-4.926-21.558L140.273,6.1C136.337,2.166,131.105,0,125.54,0   c-5.564,0-10.797,2.166-14.734,6.102c-8.124,8.125-8.124,21.345,0.001,29.467l18.859,18.859c1.355,1.356,2.873,2.486,4.497,3.406   c-0.744,2.14-1.169,4.428-1.169,6.818v26.675c0,2.39,0.425,4.677,1.169,6.816c-1.623,0.92-3.141,2.049-4.495,3.404l-18.862,18.861   c-3.936,3.936-6.103,9.168-6.103,14.734c0,4.933,1.709,9.598,4.836,13.336c-3.127,3.738-4.836,8.403-4.836,13.336   c0,5.566,2.168,10.799,6.103,14.734l18.861,18.861c3.936,3.936,9.168,6.102,14.734,6.102c5.565,0,10.798-2.167,14.734-6.103   c8.123-8.125,8.123-21.344-0.001-29.468l-17.464-17.462l17.465-17.465c5.821-5.821,7.446-14.251,4.926-21.556   c6.322-3.582,10.606-10.36,10.606-18.131V64.652C174.668,56.881,170.384,50.102,164.062,46.521z M153.832,97.162   c-3.219,0-5.838-2.618-5.838-5.835V64.652c0-3.218,2.619-5.836,5.838-5.836c3.218,0,5.836,2.618,5.836,5.836v26.675   C159.668,94.544,157.05,97.162,153.832,97.162z M121.412,24.962c-2.275-2.275-2.275-5.979-0.001-8.253   c1.103-1.102,2.569-1.709,4.129-1.709c1.56,0,3.026,0.607,4.127,1.708l18.861,18.861c2.275,2.276,2.276,5.979,0,8.255   c-1.103,1.103-2.568,1.71-4.127,1.71c-1.559,0-3.024-0.607-4.128-1.71L121.412,24.962z M148.53,184.803   c-1.103,1.102-2.569,1.709-4.128,1.709c-1.56,0-3.025-0.607-4.127-1.709l-18.861-18.861c-1.103-1.102-1.71-2.568-1.71-4.127   c0-1.559,0.607-3.023,1.71-4.126c1.103-1.103,2.568-1.71,4.127-1.71c1.559,0,3.024,0.607,4.128,1.711l18.86,18.859   C150.805,178.824,150.804,182.527,148.53,184.803z M148.529,120.408l-18.86,18.861c-1.103,1.102-2.568,1.71-4.128,1.71   c-1.56,0-3.025-0.607-4.128-1.71c-1.102-1.102-1.709-2.567-1.709-4.126c0-1.56,0.607-3.026,1.709-4.128l18.862-18.861   c1.103-1.103,2.567-1.71,4.127-1.71c1.559,0,3.024,0.607,4.127,1.71C150.804,114.429,150.804,118.132,148.529,120.408z" fill="#FF45A5"/>
	<path d="M102.631,47.422c4.396-10.615-0.664-22.829-11.278-27.225c-2.546-1.055-5.227-1.589-7.968-1.589   c-8.46,0-16.018,5.05-19.255,12.866L53.924,56.116c-2.131,5.142-2.132,10.806-0.002,15.949c0.734,1.772,1.705,3.398,2.855,4.87   c-5.12,5.784-6.841,14.191-3.692,21.794l9.452,22.818l-22.816,9.451c-5.143,2.13-9.149,6.135-11.279,11.278   c-2.129,5.143-2.129,10.806,0.001,15.947c3.236,7.815,10.794,12.866,19.254,12.866c2.742,0,5.424-0.535,7.969-1.59l24.643-10.206   c10.026-4.154,15.085-15.28,11.91-25.447c4.321-2.257,7.686-5.915,9.574-10.472c2.13-5.142,2.13-10.807,0-15.949L91.586,82.78   c-0.734-1.772-1.7-3.393-2.838-4.854c1.511-1.705,2.767-3.669,3.674-5.86L102.631,47.422z M87.935,117.632   c-0.597,1.44-1.719,2.562-3.159,3.159c-0.718,0.297-1.467,0.448-2.229,0.448c-0.868,0-1.7-0.193-2.453-0.541   c-0.025-0.01-0.05-0.022-0.075-0.033c-1.271-0.608-2.304-1.669-2.869-3.032L66.943,92.988c-1.231-2.973,0.186-6.395,3.16-7.626   c0.717-0.297,1.466-0.448,2.227-0.448c2.372,0,4.491,1.416,5.399,3.606l10.207,24.643   C88.532,114.604,88.532,116.191,87.935,117.632z M74.569,145.433L49.924,155.64c-0.717,0.297-1.467,0.448-2.228,0.448   c-2.371,0-4.489-1.415-5.396-3.606c-0.597-1.441-0.597-3.027,0-4.467c0.597-1.44,1.718-2.562,3.16-3.159l24.643-10.208   c0.717-0.297,1.467-0.448,2.229-0.448c0.87,0,1.704,0.194,2.459,0.543c0.023,0.009,0.045,0.02,0.069,0.03   c1.271,0.608,2.306,1.67,2.87,3.033C78.959,140.78,77.542,144.201,74.569,145.433z M88.773,41.682l-10.21,24.645   c-0.906,2.189-3.024,3.603-5.396,3.603c-0.761,0-1.511-0.15-2.229-0.448c-1.44-0.596-2.562-1.718-3.158-3.158   c-0.597-1.439-0.596-3.026,0.001-4.467l10.207-24.644c0.907-2.191,3.026-3.606,5.397-3.606c0.761,0,1.511,0.151,2.228,0.448   C88.587,35.287,90.004,38.709,88.773,41.682z" fill="#FF45A5"/>
</g>
<g>
</g>
<g>
</g>
<g>
</g>
<g>
</g>
<g>
</g>
<g>
</g>
<g>
</g>
<g>
</g>
<g>
</g>
<g>
</g>
<g>
</g>
<g>
</g>
<g>
</g>
<g>
</g>
<g>
</g>
</svg>
